<?xml version="1.0" encoding="UTF-8" standalone="no"?>
<!-- Created with Inkscape (http://www.inkscape.org/) -->

<svg
   width="210mm"
   height="210mm"
   viewBox="0 0 210 210"
   version="1.1"
   id="svg1"
   inkscape:version="1.4.2 (f4327f4, 2025-05-13)"
   sodipodi:docname="Logo IAUPO Cuadrado.svg"
   xmlns:inkscape="http://www.inkscape.org/namespaces/inkscape"
   xmlns:sodipodi="http://sodipodi.sourceforge.net/DTD/sodipodi-0.dtd"
   xmlns:xlink="http://www.w3.org/1999/xlink"
   xmlns="http://www.w3.org/2000/svg"
   xmlns:svg="http://www.w3.org/2000/svg">
  <sodipodi:namedview
     id="namedview1"
     pagecolor="#ffffff"
     bordercolor="#000000"
     borderopacity="0.25"
     inkscape:showpageshadow="2"
     inkscape:pageopacity="0.0"
     inkscape:pagecheckerboard="0"
     inkscape:deskcolor="#d1d1d1"
     inkscape:document-units="mm"
     inkscape:zoom="0.71891835"
     inkscape:cx="302.53783"
     inkscape:cy="362.34991"
     inkscape:window-width="1920"
     inkscape:window-height="1009"
     inkscape:window-x="-8"
     inkscape:window-y="-8"
     inkscape:window-maximized="1"
     inkscape:current-layer="layer1" />
  <defs
     id="defs1">
    <linearGradient
       inkscape:collect="always"
       xlink:href="#linearGradient7"
       id="linearGradient8"
       x1="15.142407"
       y1="109.41705"
       x2="194.8575"
       y2="125.14009"
       gradientUnits="userSpaceOnUse"
       gradientTransform="matrix(0.67690799,0,0,0.67690799,33.924676,-3.4611294)" />
    <linearGradient
       id="linearGradient7"
       inkscape:collect="always">
      <stop
         style="stop-color:#00a49c;stop-opacity:1;"
         offset="0"
         id="stop7" />
      <stop
         style="stop-color:#f6fb7e;stop-opacity:1;"
         offset="1"
         id="stop8" />
    </linearGradient>
    <linearGradient
       inkscape:collect="always"
       xlink:href="#linearGradient7"
       id="linearGradient10"
       x1="25.566797"
       y1="235.75674"
       x2="185.68106"
       y2="235.75674"
       gradientUnits="userSpaceOnUse" />
  </defs>
  <g
     inkscape:label="Layer 1"
     inkscape:groupmode="layer"
     id="layer1">
    <path
       id="path7"
       style="display:inline;fill:url(#linearGradient8);stroke-width:0.179379;paint-order:stroke fill markers"
       inkscape:transform-center-y="-6.2435233"
       d="m 104.55278,17.558361 a 6.4092088,6.4092088 0 0 0 -3.31997,1.208215 L 46.584317,58.471192 a 6.4092088,6.4092088 0 0 0 -2.328293,7.165688 l 1.000784,3.080005 34.369445,-19.843208 c -1.24669,-3.448015 0.119953,-7.4244 3.400415,-9.318374 1.150063,-0.663985 2.404176,-0.996239 3.649838,-1.027018 2.740474,-0.06771 5.440123,1.32399 6.900888,3.854117 2.124752,3.680193 0.853083,8.425968 -2.827099,10.550726 -3.280462,1.89397 -7.407586,1.089295 -9.770309,-1.71438 l -34.867905,20.130743 3.44765,10.60984 14.905759,-8.60582 c -1.246702,-3.448015 0.119959,-7.424403 3.400422,-9.31837 1.150056,-0.663985 2.404157,-0.99624 3.64982,-1.027019 2.740466,-0.06771 5.440134,1.323991 6.900908,3.854111 2.124754,3.680191 0.853084,8.425968 -2.827108,10.550728 -3.280459,1.89397 -7.407584,1.08929 -9.770306,-1.71439 l -15.404237,8.89372 3.00901,9.26031 71.664621,-41.375966 c -0.63058,-2.025396 0.20008,-4.3062 2.10894,-5.408287 0.69081,-0.398841 1.44494,-0.598202 2.19396,-0.61635 1.64784,-0.03994 3.27225,0.797295 4.1497,2.317087 1.27629,2.21061 0.51092,5.06632 -1.69969,6.342607 -1.90885,1.10208 -4.29881,0.681908 -5.73744,-0.876603 l -72.038919,41.591442 3.085598,9.496779 53.870201,-31.101949 c -1.24669,-3.448008 0.11995,-7.424396 3.40042,-9.31837 1.15006,-0.66398 2.40417,-0.996578 3.64984,-1.027357 2.74047,-0.06771 5.44012,1.323976 6.90089,3.854111 2.12476,3.680186 0.85309,8.425966 -2.82709,10.550716 -3.28046,1.89398 -7.40724,1.0893 -9.76998,-1.71437 l -54.368661,31.389809 2.816602,8.66914 79.184669,-45.716996 c -1.2465,-3.44794 0.12012,-7.424799 3.40041,-9.318713 1.15007,-0.66399 2.40416,-0.99625 3.64984,-1.027022 2.74048,-0.06771 5.44013,1.323987 6.9009,3.854113 2.12475,3.680192 0.85309,8.425969 -2.82711,10.550719 -3.28044,1.89398 -7.40758,1.0893 -9.77033,-1.71438 l -79.682759,46.004899 3.170955,9.75947 64.361094,-37.159099 c -0.63055,-2.0254 0.2001,-4.30621 2.10896,-5.40829 0.69081,-0.39884 1.4446,-0.5982 2.19362,-0.61635 1.64785,-0.0399 3.27225,0.79729 4.1497,2.31708 1.27629,2.21061 0.5109,5.06631 -1.6997,6.34261 -1.90884,1.10208 -4.29881,0.68226 -5.73745,-0.87625 L 65.582755,130.93859 a 6.4092088,6.4092088 0 0 0 5.642649,3.36999 h 10.142495 l 25.506511,-14.7263 c -1.24668,-3.44802 0.11996,-7.4244 3.40042,-9.31838 1.15008,-0.66398 2.40418,-0.99624 3.64984,-1.02702 2.74048,-0.0677 5.44012,1.32399 6.90089,3.85412 2.12475,3.6802 0.85308,8.42597 -2.8271,10.55073 -3.28044,1.89397 -7.40759,1.0893 -9.77031,-1.71438 L 86.783192,134.30858 H 138.7746 a 6.4092088,6.4092088 0 0 0 6.09565,-4.42884 l 20.87373,-64.24286 a 6.4092088,6.4092088 0 0 0 -2.32829,-7.165688 l -54.6485,-39.704616 a 6.4092088,6.4092088 0 0 0 -4.21441,-1.208215 z M 86.758353,41.222809 c -0.80792,0.02254 -1.623918,0.241872 -2.377943,0.677217 -2.412926,1.393104 -3.228857,4.438999 -1.835767,6.851918 1.393108,2.412928 4.439003,3.229215 6.851929,1.836111 2.412907,-1.393099 3.228855,-4.438993 1.835749,-6.85192 -0.957761,-1.658882 -2.696546,-2.562912 -4.473968,-2.513326 z m 42.694377,7.249994 c -0.42069,0.01197 -0.8459,0.126997 -1.23969,0.354349 -1.26017,0.727554 -1.68322,2.309568 -0.95566,3.569728 0.72754,1.260161 2.30852,1.683914 3.56866,0.95636 1.26016,-0.727551 1.68393,-2.30852 0.95636,-3.568679 -0.50019,-0.86636 -1.40411,-1.338092 -2.32967,-1.311758 z m 17.68703,14.784029 c -0.80792,0.02255 -1.6239,0.242224 -2.37794,0.677566 -2.41293,1.393094 -3.22888,4.438992 -1.83577,6.851911 1.39311,2.412922 4.439,3.229212 6.85192,1.836112 2.41293,-1.3931 3.22887,-4.439345 1.83576,-6.852272 -0.95774,-1.658869 -2.69657,-2.562901 -4.47397,-2.513317 z m -75.542166,2.445809 c -0.807919,0.02254 -1.623568,0.241873 -2.377598,0.677213 -2.412926,1.393104 -3.229222,4.439 -1.836112,6.851917 1.393109,2.41293 4.438989,3.22922 6.851915,1.83612 2.412926,-1.39311 3.229222,-4.438998 1.836114,-6.851923 -0.95776,-1.658885 -2.696898,-2.562917 -4.474319,-2.513327 z m 46.555476,0.867506 c -0.8079,0.02254 -1.62355,0.242224 -2.37758,0.677572 -2.41294,1.393102 -3.22923,4.439002 -1.83613,6.851922 1.39311,2.41292 4.439,3.22921 6.85193,1.8361 2.41292,-1.3931 3.2292,-4.43899 1.83609,-6.851917 -0.95774,-1.658878 -2.69688,-2.563261 -4.47431,-2.513677 z m 15.42137,21.284394 c -0.42071,0.012 -0.84589,0.12664 -1.2397,0.354 -1.26014,0.72756 -1.68284,2.30957 -0.9553,3.56973 0.72755,1.26017 2.30852,1.68391 3.56868,0.95635 1.26016,-0.72754 1.68356,-2.30851 0.95602,-3.56867 -0.50021,-0.86636 -1.40414,-1.33774 -2.3297,-1.31141 z m -19.5679,24.076869 c -0.80793,0.0225 -1.62394,0.24188 -2.37797,0.67722 -2.41292,1.3931 -3.22885,4.43935 -1.83574,6.85227 1.39309,2.41293 4.43896,3.22885 6.85189,1.83576 2.41292,-1.39311 3.22888,-4.439 1.83577,-6.85193 -0.95776,-1.65887 -2.69655,-2.56291 -4.47395,-2.51332 z"
       inkscape:label="Logo 2 Invertido"
       inkscape:transform-center-x="3.6655786e-06" />
    <text
       xml:space="preserve"
       style="font-style:normal;font-variant:normal;font-weight:normal;font-stretch:normal;font-size:50.8px;line-height:0;font-family:Consolas;-inkscape-font-specification:Consolas;text-align:center;writing-mode:lr-tb;direction:ltr;text-anchor:middle;white-space:pre;inline-size:274.631;display:inline;fill:url(#linearGradient10);stroke-width:0.265;stroke-dasharray:none;paint-order:stroke fill markers"
       x="104.17287"
       y="248.34512"
       id="text7"
       transform="matrix(1.0567713,0,0,1.0567713,-6.6203344,-79.618034)"><tspan
         x="104.17287"
         y="248.34512"
         id="tspan2">&gt;iaupo</tspan></text>
  </g>
</svg>
